<svg xmlns="http://www.w3.org/2000/svg" viewBox="0 0 32.82 19.67"><defs><style>.cls-1{fill:#f37e35;}.cls-1,.cls-2{fill-rule:evenodd;}.cls-2,.cls-3{fill:#fdfdfd;}</style></defs><g id="Layer_2" data-name="Layer 2"><g id="Layer_1-2" data-name="Layer 1"><path class="cls-1" d="M4.5,0l2,1.69A2.91,2.91,0,0,1,7.4,4c0,2.06-2.15,3-2.88,4.77a3.36,3.36,0,0,0-.32,1.56c0,.2.15,1.05.39,1.1A2.21,2.21,0,0,0,7.38,8.54a2.68,2.68,0,0,0-.5-1.14H7L9,9.13a2.09,2.09,0,0,1,.64,1.35,2.76,2.76,0,0,1-2.75,2.91,2.48,2.48,0,0,1-1.63-.58L3,10.86a2.53,2.53,0,0,1-.82-2.12C2.14,6.8,3.74,5.67,4.46,4a4.93,4.93,0,0,0,.4-2.07A2.8,2.8,0,0,0,4.43.09Z"/><path class="cls-2" d="M9.38,14.94l2.38,2-.12,0a3.81,3.81,0,0,0-2.32-.81,6.39,6.39,0,0,0-2.41.47c-.35.12-.7.26-1,.4a3.45,3.45,0,0,1-1.64.27A4.64,4.64,0,0,1,1.92,16L0,14.37s.11,0,.12,0a5.32,5.32,0,0,0,3.56.74c.54-.07,2.52-1,3.1-1a4,4,0,0,1,1.1.06A3.89,3.89,0,0,1,9.38,14.94Z"/><path class="cls-2" d="M21.78,5.46l1.08-2.7h0l1,2.7ZM32.65,7.63h0c-.34,0-.47-.24-.86-.79L29.9,4.18l1.5-2a1.24,1.24,0,0,1,.77-.39.35.35,0,0,0,.24-.31H30.32a.37.37,0,0,0,.25.34c.22.09.34.28.13.57L29.61,3.82l-.94-1.4c-.3-.44-.12-.61.15-.65a.31.31,0,0,0,.23-.3H26.28a.34.34,0,0,0,.24.32,1.25,1.25,0,0,1,.74.55l1.56,2.32-1.5,2.06a2.83,2.83,0,0,1-.62.72.39.39,0,0,1-.45,0h0a1.64,1.64,0,0,1-.43-.65c-.37-.88-1.57-3.92-2.17-5.44H23c-.84,2-2.05,5-2.41,5.72a1,1,0,0,1-.8.56s-.73.12-.81-.41c0-.11,0-.23,0-.39V2.66c0-.52.17-.82.67-.89h0a.29.29,0,0,0,.22-.3h-1.8L15.55,6.26l-2.4-4.79H11.22s0,.28.2.29h0c.38,0,.69.16.75.81v4a5,5,0,0,1-.05.61c0,.24-.19.37-.5.43h0a.33.33,0,0,0-.28.32h2.12v0a.35.35,0,0,0-.28-.29c-.31-.06-.48-.19-.51-.43a3.67,3.67,0,0,1,0-.61V3.18h0L15,7.93h.22l2.41-4.6h0V6.84a2.29,2.29,0,0,1,0,.56c0,.13-.21.19-.48.22a.33.33,0,0,0-.26.31h4.8a.39.39,0,0,0-.27-.33c-.24-.09-.3-.33-.19-.63l.39-1.1H24L24.44,7c.13.31.1.54-.15.64a.38.38,0,0,0-.29.34h3.92a.35.35,0,0,0-.26-.35h0c-.17-.1-.19-.33.12-.77L29.08,5,30.4,6.92c.32.49.18.65-.06.7a.34.34,0,0,0-.25.31h2.73A.33.33,0,0,0,32.65,7.63Z"/><path class="cls-1" d="M11.19,15.33c.46,0,.8-.07.85-.24a2.29,2.29,0,0,0,0-.56V10.29a2.24,2.24,0,0,0,0-.55c0-.17-.39-.21-.85-.24V9.21H14.4V9.5c-.46,0-.8.07-.85.24a2.24,2.24,0,0,0,0,.55V14.6c0,.62.38.67,1.2.67,1.31,0,1.5-.5,1.92-1.31h.28l-.3,1.65H11.19Z"/><path class="cls-1" d="M19.92,14.53a2.29,2.29,0,0,0,0,.56c0,.17.39.21.85.24v.28H17.6v-.28c.46,0,.8-.07.84-.24a2.29,2.29,0,0,0,0-.56V10.29a2.24,2.24,0,0,0,0-.55c0-.17-.38-.21-.84-.24V9.21h3.21V9.5c-.46,0-.81.07-.85.24a2.24,2.24,0,0,0,0,.55Z"/><path class="cls-1" d="M21.58,9.21h5v1.48h-.27c-.16-.65-.41-1.14-1.12-1.14H23.9v2.74h1a.82.82,0,0,0,.93-.87h.27v2.13H25.8a.85.85,0,0,0-.93-.92h-1v1.9a2.29,2.29,0,0,0,0,.56c0,.17.39.21.85.24v.28H21.58v-.28c.46,0,.8-.07.84-.24a1.84,1.84,0,0,0,0-.56V10.29a1.81,1.81,0,0,0,0-.55c0-.17-.38-.21-.84-.24Z"/><path class="cls-1" d="M27.07,15.33c.45,0,.8-.07.84-.24a1.84,1.84,0,0,0,.05-.56V10.29a1.81,1.81,0,0,0-.05-.55c0-.17-.39-.21-.84-.24V9.21h5v1.48H31.8c-.16-.65-.4-1.14-1.11-1.14h-1.3v2.56h.85a.8.8,0,0,0,.91-.87h.28v2.13h-.28a.83.83,0,0,0-.91-.91h-.85v2.07c0,.7.38.75,1.21.75,1.3,0,1.49-.5,1.92-1.31h.27l-.3,1.65H27.07Z"/><rect class="cls-3" x="11.63" y="17.38" width="0.41" height="2.26"/><polygon class="cls-2" points="14.42 19.21 14.41 19.21 13.72 17.39 13.72 17.38 13.06 17.38 13.06 19.63 13.48 19.63 13.48 17.79 13.48 17.79 14.18 19.62 14.18 19.63 14.83 19.63 14.83 17.38 14.42 17.38 14.42 19.21"/><path class="cls-2" d="M16.63,18.33c-.38-.12-.46-.18-.46-.35s.2-.26.37-.26.62,0,.63,0h0v-.35h0a4.32,4.32,0,0,0-.67-.07c-.49,0-.76.22-.76.64s.21.55.66.69.44.16.44.32-.12.3-.39.3-.62-.05-.63-.05h0l0,.37h0a4.73,4.73,0,0,0,.68.07c.53,0,.77-.22.77-.7S17.08,18.47,16.63,18.33Z"/><path class="cls-2" d="M19.34,18.9c0,.27-.12.37-.42.37s-.4-.1-.4-.37V17.38H18.1V18.9c0,.53.26.76.82.76s.83-.23.83-.76V17.38h-.41Z"/><path class="cls-2" d="M21.17,17.75h.42a.37.37,0,0,1,0,.74h-.43v-.74Zm1.2.36h0c0-.49-.26-.73-.78-.73h-.82v2.25h.4v-.77h.45l.31.77h.45L22,18.76A.66.66,0,0,0,22.37,18.11Z"/><path class="cls-2" d="M24.08,17.74l.25,1.06h-.59L24,17.74Zm.33-.36h-.73l-.55,2.22v0h.42l.11-.45h.76l.13.45H25l-.55-2.24Z"/><polygon class="cls-2" points="27.16 19.21 27.16 19.21 26.48 17.39 26.47 17.38 25.81 17.38 25.81 19.63 26.22 19.63 26.22 17.79 26.93 19.62 26.93 19.63 27.58 19.63 27.58 17.38 27.16 17.38 27.16 19.21"/><path class="cls-2" d="M29.94,19.23a3.94,3.94,0,0,1-.53.05c-.37,0-.48-.18-.48-.77s.11-.78.46-.78c.17,0,.55,0,.55,0h0l0-.37h0a4,4,0,0,0-.61-.07c-.7,0-.85.47-.85,1.17s.14,1.16.85,1.16A3.48,3.48,0,0,0,30,19.6h0v-.37Z"/><polygon class="cls-2" points="32.29 17.75 32.29 17.38 30.88 17.38 30.88 19.63 32.29 19.63 32.29 19.25 31.29 19.25 31.29 18.69 32.1 18.69 32.1 18.32 31.29 18.32 31.29 17.75 32.29 17.75"/></g></g></svg>