<svg xmlns="http://www.w3.org/2000/svg" viewBox="0 0 18.61 19.55"><defs><style>.cls-1{fill:#1e467a;}.cls-2{fill:#fdfdfd;}.cls-2,.cls-4{fill-rule:evenodd;}.cls-3,.cls-4{fill:none;}.cls-3{stroke:#1e467a;stroke-linecap:round;stroke-linejoin:round;stroke-width:0.96px;}</style></defs><g id="Layer_2" data-name="Layer 2"><g id="Layer_1-2" data-name="Layer 1"><rect class="cls-1" width="18.61" height="19.55"/><path class="cls-2" d="M9.45,5.28a5,5,0,1,1-5,5,5,5,0,0,1,5-5Zm0,2.32a2.69,2.69,0,1,0,2.7,2.69A2.69,2.69,0,0,0,9.45,7.6Z"/><rect class="cls-3" x="9.8" y="6.75" width="4.17" height="1.76" rx="0.41" transform="translate(-1.92 10.6) rotate(-44.84)"/><path class="cls-4" d="M13,5.82l.66.67a.41.41,0,0,1,0,.58L11.32,9.43a.41.41,0,0,1-.58,0l-.67-.67a.41.41,0,0,1,0-.58l2.37-2.36A.41.41,0,0,1,13,5.82Z"/><rect class="cls-3" x="10.99" y="10.86" width="1.76" height="4.17" rx="0.41" transform="translate(-5.68 12.14) rotate(-44.84)"/><path class="cls-4" d="M13.67,14.09l-.66.67a.42.42,0,0,1-.59,0l-2.36-2.38a.41.41,0,0,1,0-.58l.66-.66a.41.41,0,0,1,.58,0l2.36,2.37A.41.41,0,0,1,13.67,14.09Z"/><rect class="cls-3" x="6.14" y="5.54" width="1.76" height="4.17" rx="0.41" transform="translate(-3.34 7.23) rotate(-45.16)"/><path class="cls-4" d="M5.87,5.82l-.66.67a.41.41,0,0,0,0,.58L7.59,9.43a.41.41,0,0,0,.58,0l.66-.67a.41.41,0,0,0,0-.58L6.46,5.82A.42.42,0,0,0,5.87,5.82Z"/><rect class="cls-3" x="4.95" y="12.07" width="4.17" height="1.76" rx="0.41" transform="translate(-7.11 8.81) rotate(-45.16)"/><path class="cls-4" d="M5.23,14.09l.67.67a.41.41,0,0,0,.58,0l2.36-2.38a.41.41,0,0,0,0-.58l-.67-.66a.41.41,0,0,0-.58,0L5.23,13.51A.41.41,0,0,0,5.23,14.09Z"/></g></g></svg>