<svg xmlns="http://www.w3.org/2000/svg" viewBox="0 0 18.61 19.55"><defs><style>.cls-1{fill:#1e467a;}.cls-2{fill:#fdfdfd;fill-rule:evenodd;}</style></defs><g id="Layer_2" data-name="Layer 2"><g id="Layer_1-2" data-name="Layer 1"><rect class="cls-1" width="18.61" height="19.55"/><path class="cls-2" d="M8.89,6a4.16,4.16,0,0,1,1.92.47l.08.75-.53.45a2.82,2.82,0,0,0-1.47-.4,2.89,2.89,0,1,0,2.89,2.89,3,3,0,0,0-.46-1.58L12,8l.43,0A4.16,4.16,0,1,1,8.89,6Z"/><path class="cls-2" d="M8.89,8.13a2.06,2.06,0,0,1,.93.22l-.73.89-.2,0a1,1,0,1,0,1,1,.93.93,0,0,0-.06-.34l.82-.78a2.05,2.05,0,1,1-1.72-.93Z"/><polygon class="cls-2" points="12.49 6.41 12.24 5.21 10.98 6.43 11.13 7.77 12.65 7.84 13.88 6.6 12.49 6.41"/><polygon class="cls-2" points="12.96 5.49 8.78 9.52 8.85 10.19 9.43 10.14 13.52 6.07 12.96 5.49"/></g></g></svg>