<svg xmlns="http://www.w3.org/2000/svg" viewBox="0 0 17.66 10.58"><defs><style>.cls-1{fill:#f37e35;}.cls-1,.cls-2{fill-rule:evenodd;}.cls-2,.cls-3{fill:#1e467a;}</style></defs><g id="Layer_2" data-name="Layer 2"><g id="Layer_1-2" data-name="Layer 1"><path class="cls-1" d="M2.42,0,3.49.91A1.56,1.56,0,0,1,4,2.17C4,3.28,2.82,3.8,2.43,4.73a1.89,1.89,0,0,0-.17.84c0,.11.08.57.21.6A1.19,1.19,0,0,0,4,4.59,1.38,1.38,0,0,0,3.7,4h.06l1.07.93a1.18,1.18,0,0,1,.34.73A1.48,1.48,0,0,1,3.69,7.2a1.28,1.28,0,0,1-.87-.31l-1.23-1A1.37,1.37,0,0,1,1.15,4.7c0-1,.86-1.65,1.25-2.55A2.5,2.5,0,0,0,2.61,1a1.48,1.48,0,0,0-.23-1Z"/><path class="cls-2" d="M5.05,8,6.33,9.12H6.26A2,2,0,0,0,5,8.7,3.37,3.37,0,0,0,3.72,9l-.56.21a1.72,1.72,0,0,1-.89.15A2.46,2.46,0,0,1,1,8.62L0,7.73H.06A2.89,2.89,0,0,0,2,8.12c.29,0,1.36-.55,1.67-.55a1.94,1.94,0,0,1,.59,0A2.21,2.21,0,0,1,5.05,8Z"/><path class="cls-2" d="M11.72,2.94l.58-1.45h0l.53,1.45Zm5.85,1.17h0c-.19,0-.26-.13-.47-.43l-1-1.43.8-1.08A.65.65,0,0,1,17.31,1a.21.21,0,0,0,.13-.17H16.31a.19.19,0,0,0,.13.18c.12.05.19.15.08.31l-.59.77-.51-.75c-.16-.23-.06-.32.09-.35a.17.17,0,0,0,.12-.16H14.14a.19.19,0,0,0,.13.18.6.6,0,0,1,.39.29l.84,1.25-.8,1.11a1.72,1.72,0,0,1-.33.38.23.23,0,0,1-.25,0h0a.93.93,0,0,1-.23-.35c-.2-.48-.85-2.11-1.17-2.93h-.35c-.45,1.09-1.1,2.71-1.29,3.08a.54.54,0,0,1-.43.3s-.4.06-.44-.22a1.28,1.28,0,0,1,0-.21V1.43c0-.28.1-.44.37-.48h0a.17.17,0,0,0,.12-.16h-1L8.37,3.37,7.07.79H6s0,.15.1.16h0c.21,0,.38.09.41.44V3.54a2.69,2.69,0,0,1,0,.32c0,.13-.1.2-.27.23h0a.19.19,0,0,0-.15.18H7.24v0s0-.12-.15-.15S6.83,4,6.82,3.86a1.51,1.51,0,0,1,0-.32V1.71h0L8.06,4.27h.12l1.3-2.48h0V3.68a1.32,1.32,0,0,1,0,.3c0,.07-.12.1-.26.12a.18.18,0,0,0-.14.17h2.58a.21.21,0,0,0-.15-.18c-.13,0-.16-.18-.1-.34l.21-.59h1.31l.22.58c.07.16,0,.29-.08.35s-.16.15-.16.18H15a.18.18,0,0,0-.14-.19h0c-.09,0-.1-.18.07-.41l.69-1,.71,1c.18.26.1.34,0,.37a.18.18,0,0,0-.13.17h1.46A.16.16,0,0,0,17.57,4.11Z"/><path class="cls-1" d="M6,8.25c.25,0,.43,0,.45-.13a.92.92,0,0,0,0-.3V5.54a.89.89,0,0,0,0-.3c0-.09-.2-.12-.45-.13V5H7.75v.15c-.25,0-.44,0-.46.13a1.32,1.32,0,0,0,0,.3V7.85c0,.34.2.37.65.37.7,0,.8-.27,1-.71H9.1l-.16.89H6Z"/><path class="cls-1" d="M10.72,7.82a1.37,1.37,0,0,0,0,.3c0,.09.21.11.45.13V8.4H9.47V8.25c.24,0,.43,0,.45-.13a1.37,1.37,0,0,0,0-.3V5.54a1.32,1.32,0,0,0,0-.3c0-.09-.21-.12-.45-.13V5h1.72v.15c-.24,0-.43,0-.45.13a1.32,1.32,0,0,0,0,.3Z"/><path class="cls-1" d="M11.61,5h2.7v.79h-.15c-.08-.35-.22-.61-.6-.61h-.7V6.61h.52a.44.44,0,0,0,.5-.47H14V7.29h-.15c0-.27-.13-.49-.5-.49h-.52v1a1.37,1.37,0,0,0,0,.3c0,.09.21.11.46.13V8.4H11.61V8.25c.25,0,.43,0,.45-.13a.92.92,0,0,0,0-.3V5.54a.89.89,0,0,0,0-.3c0-.09-.2-.12-.45-.13Z"/><path class="cls-1" d="M14.56,8.25c.24,0,.44,0,.46-.13a1.37,1.37,0,0,0,0-.3V5.54a1.32,1.32,0,0,0,0-.3c0-.09-.22-.12-.46-.13V5h2.69v.79h-.14c-.09-.35-.22-.61-.6-.61h-.7V6.52h.46A.44.44,0,0,0,16.76,6h.15V7.19h-.15a.45.45,0,0,0-.49-.49h-.46V7.81c0,.38.2.41.65.41.7,0,.8-.27,1-.71h.15l-.16.89H14.56Z"/><rect class="cls-3" x="6.26" y="9.35" width="0.22" height="1.21"/><polygon class="cls-2" points="7.75 10.34 7.75 10.34 7.38 9.36 7.38 9.35 7.03 9.35 7.03 10.56 7.25 10.56 7.25 9.57 7.25 9.57 7.63 10.55 7.63 10.56 7.98 10.56 7.98 9.35 7.75 9.35 7.75 10.34"/><path class="cls-2" d="M9,9.86c-.21-.06-.25-.1-.25-.19s.11-.14.2-.14l.34,0h0V9.37h0a2.21,2.21,0,0,0-.36,0c-.27,0-.41.12-.41.34s.11.3.36.38.23.08.23.16-.06.17-.21.17l-.34,0h0v.19h0a1.53,1.53,0,0,0,.37,0c.28,0,.41-.11.41-.37S9.19,9.94,9,9.86Z"/><path class="cls-2" d="M10.41,10.17c0,.14-.07.2-.23.2s-.22-.06-.22-.2V9.35H9.74v.82c0,.28.14.41.44.41s.45-.13.45-.41V9.35h-.22Z"/><path class="cls-2" d="M11.39,9.55h.23a.17.17,0,0,1,.19.19.18.18,0,0,1-.19.21h-.23v-.4Zm.64.19h0c0-.26-.14-.39-.41-.39h-.45v1.21h.22v-.42h.24l.17.42H12l-.19-.47A.36.36,0,0,0,12,9.74Z"/><path class="cls-2" d="M13,9.54l.14.57h-.32l.14-.57Zm.18-.19h-.39l-.3,1.2h.22l.06-.24h.41l.07.24h.23l-.3-1.2Z"/><polygon class="cls-2" points="14.61 10.34 14.61 10.34 14.24 9.36 14.24 9.35 13.89 9.35 13.89 10.56 14.11 10.56 14.11 9.57 14.49 10.55 14.49 10.56 14.84 10.56 14.84 9.35 14.61 9.35 14.61 10.34"/><path class="cls-2" d="M16.11,10.35l-.29,0c-.2,0-.26-.1-.26-.41s.06-.42.25-.42l.3,0h0V9.37h0a2,2,0,0,0-.33,0c-.38,0-.46.25-.46.63s.08.62.46.62c.12,0,.32,0,.33,0h0v-.19Z"/><polygon class="cls-2" points="17.37 9.55 17.37 9.35 16.61 9.35 16.61 10.56 17.37 10.56 17.37 10.36 16.83 10.36 16.83 10.06 17.27 10.06 17.27 9.86 16.83 9.86 16.83 9.55 17.37 9.55"/></g></g></svg>