<svg xmlns="http://www.w3.org/2000/svg" xmlns:xlink="http://www.w3.org/1999/xlink" viewBox="0 0 19.2 19.2"><defs><style>.cls-1,.cls-5,.cls-6{fill:none;}.cls-1{clip-rule:evenodd;}.cls-2{fill:#f37e35;}.cls-3{fill:#fdfdfd;}.cls-3,.cls-6{fill-rule:evenodd;}.cls-4{clip-path:url(#clip-path);}.cls-5,.cls-6{stroke:#f37e35;stroke-miterlimit:2.61;stroke-width:0.48px;}.cls-7{clip-path:url(#clip-path-2);}.cls-8{clip-path:url(#clip-path-3);}</style><clipPath id="clip-path"><path class="cls-1" d="M6.51,7.16a8.55,8.55,0,0,0,.3,3.15,5.06,5.06,0,0,0,.46,1,4.8,4.8,0,0,0,1.12,1.28,3.32,3.32,0,0,0,1.22.68.71.71,0,0,0,.36-.09,7.16,7.16,0,0,0,.87-.56l.12-.11a5,5,0,0,0,1.48-2.13,8.33,8.33,0,0,0,.31-3.19.44.44,0,0,0-.18-.34.89.89,0,0,0-.45-.08,4.53,4.53,0,0,1-.93-.13,3.49,3.49,0,0,1-.79-.27C9.85,6.09,10,6,9.56,6c-.15,0-.39.25-.68.37a10,10,0,0,1-2.17.48A.38.38,0,0,0,6.51,7.16Z"/></clipPath><clipPath id="clip-path-2"><path class="cls-1" d="M4.48,5.43V8.17A8.54,8.54,0,0,0,5,10.79a8.68,8.68,0,0,0,.61,1.31A8.28,8.28,0,0,0,9,15.38a1.52,1.52,0,0,0,.58.22h.13a2.49,2.49,0,0,0,.84-.38A9.62,9.62,0,0,0,12.16,14c.16-.16.19-.22.31-.34s.19-.48-.17-.48a5.53,5.53,0,0,0-.67.64l-.15.13A8.1,8.1,0,0,1,9.89,15c-.34.18-.37.11-.74-.07l-.35-.2a7.54,7.54,0,0,1-1.51-1.19,7.41,7.41,0,0,1-.74-.84A8.09,8.09,0,0,1,5.08,9.34a24.06,24.06,0,0,1-.14-3.8c0-.06,0-.06,0-.11A7.7,7.7,0,0,0,9.56,4.09a1.89,1.89,0,0,1,.51.29,5.75,5.75,0,0,0,.74.38,8.13,8.13,0,0,0,2.07.56,5.1,5.1,0,0,0,.67.08l.35,0c.12,0,.33,0,.33.07A33,33,0,0,1,14.15,9a7.8,7.8,0,0,1-.54,2,4.32,4.32,0,0,1-.19.45,2.34,2.34,0,0,0-.2.43.25.25,0,0,0,.23.25c.22,0,.28-.22.35-.37a8.35,8.35,0,0,0,.85-2.88c.1-.67.07-2.45.07-3.22S14,5,12.86,4.83a6.83,6.83,0,0,1-2.64-.93c-.31-.2-.34-.3-.67-.3h0c-.21,0-.4.2-.55.29s-.34.2-.55.31a6.25,6.25,0,0,1-1.28.46,12,12,0,0,1-1.46.25C5.34,5,4.48,4.81,4.48,5.43Z"/></clipPath><clipPath id="clip-path-3"><path class="cls-1" d="M12.7,12.6a.22.22,0,0,0,.08.22c.09.08.39.15.39-.24C13.17,12.36,12.7,12.29,12.7,12.6Z"/></clipPath></defs><g id="Layer_2" data-name="Layer 2"><g id="Layer_1-2" data-name="Layer 1"><circle class="cls-2" cx="9.6" cy="9.6" r="9.6" transform="translate(-1.95 2.46) rotate(-13.28)"/><path class="cls-3" d="M6.51,7.16a8.55,8.55,0,0,0,.3,3.15,5.06,5.06,0,0,0,.46,1,4.8,4.8,0,0,0,1.12,1.28,3.32,3.32,0,0,0,1.22.68.71.71,0,0,0,.36-.09,7.16,7.16,0,0,0,.87-.56l.12-.11a5,5,0,0,0,1.48-2.13,8.33,8.33,0,0,0,.31-3.19.44.44,0,0,0-.18-.34.89.89,0,0,0-.45-.08,4.53,4.53,0,0,1-.93-.13,3.49,3.49,0,0,1-.79-.27C9.85,6.09,10,6,9.56,6c-.15,0-.39.25-.68.37a10,10,0,0,1-2.17.48A.38.38,0,0,0,6.51,7.16Z"/><g class="cls-4"><rect class="cls-5" x="7.68" y="10.17" width="3.85" height="3.91" rx="1.18"/><rect class="cls-5" x="8.74" y="7.87" width="1.72" height="2.3" rx="0.55"/><path class="cls-6" d="M8.74,9A1.57,1.57,0,0,0,9.6,9c.41-.14.14-.43.86-.3"/><line class="cls-5" x1="9.6" y1="10.17" x2="9.6" y2="11.15"/><line class="cls-5" x1="9.6" y1="11.69" x2="9.6" y2="12.18"/></g><path class="cls-3" d="M4.48,5.43V8.17A8.54,8.54,0,0,0,5,10.79a8.68,8.68,0,0,0,.61,1.31A8.28,8.28,0,0,0,9,15.38a1.52,1.52,0,0,0,.58.22h.13a2.49,2.49,0,0,0,.84-.38A9.62,9.62,0,0,0,12.16,14c.16-.16.19-.22.31-.34s.19-.48-.17-.48a5.53,5.53,0,0,0-.67.64l-.15.13A8.1,8.1,0,0,1,9.89,15c-.34.18-.37.11-.74-.07l-.35-.2a7.54,7.54,0,0,1-1.51-1.19,7.41,7.41,0,0,1-.74-.84A8.09,8.09,0,0,1,5.08,9.34a24.06,24.06,0,0,1-.14-3.8c0-.06,0-.06,0-.11A7.7,7.7,0,0,0,9.56,4.09a1.89,1.89,0,0,1,.51.29,5.75,5.75,0,0,0,.74.38,8.13,8.13,0,0,0,2.07.56,5.1,5.1,0,0,0,.67.08l.35,0c.12,0,.33,0,.33.07A33,33,0,0,1,14.15,9a7.8,7.8,0,0,1-.54,2,4.32,4.32,0,0,1-.19.45,2.34,2.34,0,0,0-.2.43.25.25,0,0,0,.23.25c.22,0,.28-.22.35-.37a8.35,8.35,0,0,0,.85-2.88c.1-.67.07-2.45.07-3.22S14,5,12.86,4.83a6.83,6.83,0,0,1-2.64-.93c-.31-.2-.34-.3-.67-.3h0c-.21,0-.4.2-.55.29s-.34.2-.55.31a6.25,6.25,0,0,1-1.28.46,12,12,0,0,1-1.46.25C5.34,5,4.48,4.81,4.48,5.43Z"/><g class="cls-7"><rect class="cls-5" x="7.68" y="10.17" width="3.85" height="3.91" rx="1.18"/><rect class="cls-5" x="8.74" y="7.87" width="1.72" height="2.3" rx="0.55"/><path class="cls-6" d="M8.74,9A1.57,1.57,0,0,0,9.6,9c.41-.14.14-.43.86-.3"/><line class="cls-5" x1="9.6" y1="10.17" x2="9.6" y2="11.15"/><line class="cls-5" x1="9.6" y1="11.69" x2="9.6" y2="12.18"/></g><path class="cls-3" d="M12.7,12.6a.22.22,0,0,0,.08.22c.09.08.39.15.39-.24C13.17,12.36,12.7,12.29,12.7,12.6Z"/><g class="cls-8"><rect class="cls-5" x="7.68" y="10.17" width="3.85" height="3.91" rx="1.18"/><rect class="cls-5" x="8.74" y="7.87" width="1.72" height="2.3" rx="0.55"/><path class="cls-6" d="M8.74,9A1.57,1.57,0,0,0,9.6,9c.41-.14.14-.43.86-.3"/><line class="cls-5" x1="9.6" y1="10.17" x2="9.6" y2="11.15"/><line class="cls-5" x1="9.6" y1="11.69" x2="9.6" y2="12.18"/></g></g></g></svg>