<svg xmlns="http://www.w3.org/2000/svg" viewBox="0 0 19.2 19.2"><defs><style>.cls-1,.cls-3{fill:#f37e35;}.cls-2,.cls-4{fill:#fdfdfd;}.cls-2,.cls-3{fill-rule:evenodd;}</style></defs><g id="Layer_2" data-name="Layer 2"><g id="Layer_1-2" data-name="Layer 1"><circle class="cls-1" cx="9.6" cy="9.6" r="9.6" transform="translate(-1.41 1.66) rotate(-9.22)"/><path class="cls-2" d="M5.88,6.46a2.56,2.56,0,0,0,.07.7A4.54,4.54,0,0,0,5,8c-.09.12-.18.22-.26.35a4.16,4.16,0,0,0-.42.75,3.54,3.54,0,0,0,0,2.92,2.46,2.46,0,0,0,.19.4c.35.61.28.27.1.78a1.75,1.75,0,0,0,.48,1.92,2,2,0,0,0,1.34.49,1.85,1.85,0,0,0,1.25-.49,1.61,1.61,0,0,0,.3-.28c.15,0,.34.05.52.08a6.47,6.47,0,0,0,.88,0c.78,0,.44-.18.84.13a2,2,0,0,0,2.63.08,1.2,1.2,0,0,0,.26-.28,1.81,1.81,0,0,0,.26-1.69,4.44,4.44,0,0,1,.26-.38,2.16,2.16,0,0,0,.25-.44,1.19,1.19,0,0,0,1.32-1.31v-1A1.18,1.18,0,0,0,13.9,8.76a4.92,4.92,0,0,0-.69-.94c-.07-.06-.09-.12-.15-.17l-.36-.3c.08-.95.46-2-.76-1.75a1.13,1.13,0,0,1-.32.06,2.71,2.71,0,0,0-.56-1L11,4.54A2.94,2.94,0,0,0,9,3.6a2.84,2.84,0,0,0-1.39.27l-.44.26a3,3,0,0,0-1,1.17,2.83,2.83,0,0,0-.27,1.16Zm.35.63a2.35,2.35,0,0,1,.25-1,2.69,2.69,0,0,1,.87-1l.4-.22a2.76,2.76,0,0,1,3.1.58l.07.08a2.19,2.19,0,0,1,.51.89,1.35,1.35,0,0,0,.29,0c1.11-.19.76.7.69,1.52l.32.26c.06.05.08.09.14.15a4.16,4.16,0,0,1,.62.81,1.06,1.06,0,0,1,1.17,1.14v.86a1.06,1.06,0,0,1-1.19,1.14,2.48,2.48,0,0,1-.22.38,1.78,1.78,0,0,0-.25.33,1.52,1.52,0,0,1-.23,1.47c-.15.2-.09.1-.24.24a1.78,1.78,0,0,1-1.06.39,1.8,1.8,0,0,1-1.32-.46c-.36-.27-.05-.11-.76-.11a5.17,5.17,0,0,1-.79,0c-.16,0-.34-.06-.48-.07a1.29,1.29,0,0,1-.27.25A1.72,1.72,0,0,1,6.72,15a1.87,1.87,0,0,1-1.22-.42,1.51,1.51,0,0,1-.43-1.67c.17-.44.23-.15-.09-.68-.06-.11-.12-.23-.17-.34a3,3,0,0,1,0-2.54,2.84,2.84,0,0,1,.38-.66,3.4,3.4,0,0,1,.23-.3A4.11,4.11,0,0,1,6.3,7.7,2,2,0,0,1,6.23,7.09Z"/><path class="cls-3" d="M8.8,9.16A2.74,2.74,0,1,0,6.06,6.42,2.74,2.74,0,0,0,8.8,9.16Z"/><path class="cls-2" d="M8.8,3.6a2.92,2.92,0,0,1,2.92,2.92,2.87,2.87,0,0,1-.75,2h-.65a2.44,2.44,0,0,0,.94-1.94,2.47,2.47,0,1,0-4,1.94H6.62A2.92,2.92,0,0,1,8.8,3.6Z"/><rect class="cls-4" x="6.4" y="8.46" width="4.8" height="0.63" rx="0.32"/><path class="cls-2" d="M8.07,5.17H9.68a1.2,1.2,0,0,1-.16.24H9.09a.53.53,0,0,1,.12.25h.47a1.74,1.74,0,0,1-.16.23h-.3a.59.59,0,0,1-.11.29.82.82,0,0,1-.26.22,1.14,1.14,0,0,1-.45.11h0s.32.4,1,1.16H8.94L8,6.57V6.35h.2c.36,0,.58-.12.66-.35a.16.16,0,0,0,0-.1h-1l.16-.23h.76a.45.45,0,0,0-.25-.21.75.75,0,0,0-.24,0H7.91Z"/></g></g></svg>