<svg xmlns="http://www.w3.org/2000/svg" viewBox="0 0 19.2 19.2"><defs><style>.cls-1{fill:#f37e35;}.cls-2{fill:#fdfdfd;fill-rule:evenodd;}</style></defs><g id="Layer_2" data-name="Layer 2"><g id="Layer_1-2" data-name="Layer 1"><circle class="cls-1" cx="9.6" cy="9.6" r="9.6" transform="translate(-1.95 2.46) rotate(-13.28)"/><path class="cls-2" d="M15.6,5.36a1.6,1.6,0,0,0-.16-.83,1.45,1.45,0,0,0-.33-.44,1.31,1.31,0,0,0-.44-.33A1.72,1.72,0,0,0,14,3.6h-.22A1.66,1.66,0,1,0,15.6,5.36Zm-1.72.33V5.31a.44.44,0,0,1-.26-.15.41.41,0,0,1-.08-.25.36.36,0,0,1,.09-.24.35.35,0,0,1,.25-.12V4.47H14v.08a.45.45,0,0,1,.23.1.38.38,0,0,1,.11.22l-.23,0A.18.18,0,0,0,14,4.75V5.1a.59.59,0,0,1,.3.15.36.36,0,0,1,.08.24.41.41,0,0,1-.1.27A.5.5,0,0,1,14,5.9v.16h-.12V5.9a.44.44,0,0,1-.26-.11.56.56,0,0,1-.12-.27l.23,0a.23.23,0,0,0,.06.12.18.18,0,0,0,.09.08Zm0-.94v.31A.22.22,0,0,1,13.79,5a.12.12,0,0,1,0-.09.16.16,0,0,1,0-.09.15.15,0,0,1,.09-.06Zm.12,1V5.35a.22.22,0,0,1,.12.07.13.13,0,0,1,0,.1.21.21,0,0,1-.05.12A.17.17,0,0,1,14,5.7Z"/><path class="cls-2" d="M5.71,7.93a1.72,1.72,0,0,0,.16.43c0,.15.11.29.16.42l1,2.4c0,.05,0,.08.08.08H8.78V9.86c0-.09-.08-.08-.16-.08H7A12.74,12.74,0,0,1,6.29,8,.68.68,0,0,1,7.6,7.75l.26.82h.4c0-.09-.08-.17-.11-.26a4.66,4.66,0,0,0-.4-.77L7.24,6.9c-.11-.11-.13-.07-.13-.28a1.15,1.15,0,0,1-.69,0c-.12,0-.15-.07-.15.08,0,.33,0,.23-.13.46C6.1,7.28,5.71,7.92,5.71,7.93Z"/><path class="cls-2" d="M14.75,9.81c-.26,0-.39,0-.39-.07v-2h-.43V9.81h-.39V8.36h-.43V9.81h-.39V9c-.29,0-.45-.05-.45.07v.77c-.49,0-.4.09-.4-.42h-.42v.42H11c0,.28,0,.42.07.42h4.5V9.81h-.4V7.33h-.45Z"/><path class="cls-2" d="M4.42,14.4a.27.27,0,0,0,.2.27.61.61,0,0,0,.18.05,21.82,21.82,0,0,0,5.78.88h2.35c.23,0,.26-.33.05-.41s-1.78,0-2.07,0l-1.12-.07a25.6,25.6,0,0,1-3.12-.47c-.33-.07-.65-.16-1-.24a6.15,6.15,0,0,0-1-.25A.26.26,0,0,0,4.42,14.4Z"/><path class="cls-2" d="M4.11,6.48,5,8.58l.29.69,1,2.44a2.79,2.79,0,0,1,.14.37H8.78v-.42h-2L6.5,11c-.42-1-1-2.38-1.37-3.37C5,7.39,5,7.19,4.86,7s-.09-.23-.14-.34a3.65,3.65,0,0,1-.14-.35A1,1,0,0,1,4.11,6.48Z"/><path class="cls-2" d="M5.87,5V5.5a.84.84,0,0,0,1.67,0V5a.83.83,0,0,0-1.42-.57A.73.73,0,0,0,5.87,5Z"/><path class="cls-2" d="M10,11.26c.64,0,.5-.06.72.31l1.39,2.24c0,.06.06.15.14.15h1.1c.18,0,.35-.24,0-.31l-.65-.13c-.14,0,0,0-.2-.2L11,11c-.27-.41-.25-.34-.95-.34Z"/><path class="cls-2" d="M9.18,9.86v4.73c0,.1.09.07.18.07l.24,0V9.79C9.32,9.79,9.18,9.75,9.18,9.86Z"/><path class="cls-2" d="M6.69,8A2.8,2.8,0,0,0,7,8.74c0,.12.09.23.14.34s.11.33.19.33h2.81c.19,0-.09-.31-.25-.38A1.75,1.75,0,0,0,9.15,9H7.58c0-.22-.15-.47-.22-.69S7.29,8,7.24,7.92A.28.28,0,0,0,6.69,8Z"/><path class="cls-2" d="M5.83,14l.6.14.45-1.25A2.25,2.25,0,0,0,7,12.48c-.59,0-.58-.05-.65.14l-.24.61A5.33,5.33,0,0,0,5.83,14Z"/><path class="cls-2" d="M3.6,5.61v.12A.42.42,0,0,0,4.33,6a.42.42,0,1,0-.73-.34Z"/><path class="cls-2" d="M10,12.08h.56a.88.88,0,0,0-.12-.21.84.84,0,0,1-.11-.21H10Z"/></g></g></svg>