<svg xmlns="http://www.w3.org/2000/svg" viewBox="0 0 4.08 4.08"><defs><style>.cls-1,.cls-2,.cls-3,.cls-4{fill:none;}.cls-1,.cls-3,.cls-4{stroke:#000;stroke-linecap:round;stroke-linejoin:round;}.cls-1,.cls-3{stroke-width:0.72px;}.cls-1,.cls-2,.cls-4{fill-rule:evenodd;}.cls-4{stroke-width:0.48px;}</style></defs><g id="Layer_2" data-name="Layer 2"><g id="Layer_1-2" data-name="Layer 1"><path class="cls-1" d="M2,3.72A1.68,1.68,0,1,0,.36,2,1.69,1.69,0,0,0,2,3.72Z"/><path class="cls-2" d="M2,3.72A1.68,1.68,0,1,0,.36,2,1.69,1.69,0,0,0,2,3.72Z"/><circle class="cls-3" cx="2.04" cy="2.04" r="0.8"/><path class="cls-2" d="M2,2.84a.8.8,0,1,0-.8-.8A.8.8,0,0,0,2,2.84Z"/><path class="cls-4" d="M.86.86l.38.38M2.83,2.83l.39.39"/><path class="cls-4" d="M3.22.86l-.44.43m-1.5,1.5-.42.43"/></g></g></svg>