<svg xmlns="http://www.w3.org/2000/svg" viewBox="0 0 14.45 16.8"><defs><style>.cls-1{fill:#1e467a;fill-rule:evenodd;}</style></defs><g id="Layer_2" data-name="Layer 2"><g id="Layer_1-2" data-name="Layer 1"><path class="cls-1" d="M0,7.05c0,.36.05.53.43.53s.32-.48.59-1a1.32,1.32,0,0,1,2.4.71c.05.47.43.53.65.31s0-.55.3-1a1.36,1.36,0,0,1,2.49.95v5.52a1,1,0,0,1-.15.61.7.7,0,0,1-1.2-.15c-.15-.38,0-.63-.52-.63-.13,0-.3.21-.3.36a1.53,1.53,0,0,0,.38,1,1.46,1.46,0,0,0,2.54-1c0-.89,0-1.92,0-2.82V7.68A1.46,1.46,0,0,1,7.9,6.55a1.34,1.34,0,0,1,2.37.77c.05.55.49.49.64.34A.42.42,0,0,0,11,7.35a1.35,1.35,0,0,1,.57-1.06,1.4,1.4,0,0,1,1.45,0l.21.15a.58.58,0,0,1,.17.23,2.27,2.27,0,0,1,.22.53c.14.42.17.43.53.43.09,0,.21-.13.24-.21a3.28,3.28,0,0,0,0-.83A7,7,0,0,0,13.71,4a8.34,8.34,0,0,0-.92-1.41A7.2,7.2,0,0,0,3.06,1.32a6.53,6.53,0,0,0-1,.8l-.21.22c-.08.11-.12.13-.2.23l-.38.5a7.32,7.32,0,0,0-1.3,4ZM.7,6S1.91.11,7.47.53a6.74,6.74,0,0,1,6.31,5.54,2,2,0,0,0-3.17.37,2.08,2.08,0,0,0-3.42-.09c-1.56-2-3.39-.1-3.39-.1A2.24,2.24,0,0,0,.7,6Z"/><path class="cls-1" d="M2.2,10.47c-.22,0-1.61,0-1.75,0a.38.38,0,0,0,0,.69,12.82,12.82,0,0,0,1.77,0c-.18.68-1.26.46-1.61.5s-.6.44-.07.85l1.94,1.81a.37.37,0,0,0,.59-.3c0-.26-.52-.65-.71-.83l-.4-.4a3.64,3.64,0,0,1-.4-.38,1.6,1.6,0,0,0,1.27-.77A2.8,2.8,0,0,0,3,11.22c.22,0,.58,0,.75-.11a.33.33,0,0,0,.1-.31c0-.39-.46-.33-.85-.33,0-.08-.06-.17-.1-.24a.88.88,0,0,1-.1-.22c.53,0,1.05.11,1.05-.43a.35.35,0,0,0-.33-.33h-3a.37.37,0,0,0-.33.49c.08.25.29.27.62.27C1.43,10,1.9,9.9,2.2,10.47Z"/><path class="cls-1" d="M10.5,8.33c0,.71,1,.18,1.31.56a8,8,0,0,0-.85,0c-.54,0-.54.48-.32.67s.87.11,1.17.11c-.11.15-.48.13-.75.13a.76.76,0,0,0-.38,0,.41.41,0,0,0,0,.67l1.15,1.09c.21.21.45.44.68.37s.26-.2.26-.4-.76-.76-.95-1.05a1.38,1.38,0,0,0,.55-.3,2.2,2.2,0,0,0,.2-.23.71.71,0,0,0,.14-.32c.24,0,.67,0,.67-.39A.41.41,0,0,0,13.19,9a1.06,1.06,0,0,0-.49-.07c0-.09,0-.09,0-.16.25,0,.61.09.7-.29S13.23,8,12.86,8a10.82,10.82,0,0,0-2.18.08A.45.45,0,0,0,10.5,8.33Z"/><path class="cls-1" d="M9.61,13.72c-.51,0-1.3-.15-1.32.36a.36.36,0,0,0,.12.29c.09.09.14.1.32.1h.88c-.2.28-.86,0-1.17.21-.52.34.32.92.56,1.16l.16.16.54.51c.19.19.3.29.5.29a.36.36,0,0,0,.35-.34c0-.36-.69-.72-1-1.14a1,1,0,0,0,.59-.3,1.4,1.4,0,0,0,.33-.55c.18,0,.66,0,.66-.36s-.44-.38-.56-.39-.1,0-.17-.17c.2,0,.73,0,.73-.36a.39.39,0,0,0-.36-.39H8.7a.37.37,0,0,0-.21.7C8.83,13.69,9.38,13.39,9.61,13.72Z"/></g></g></svg>