<svg xmlns="http://www.w3.org/2000/svg" viewBox="0 0 13.55 16.8"><defs><style>.cls-1{fill:#1e467a;fill-rule:evenodd;}</style></defs><g id="Layer_2" data-name="Layer 2"><g id="Layer_1-2" data-name="Layer 1"><path class="cls-1" d="M0,3.48v6.2a5.87,5.87,0,0,0,2.06,4l1.79,1.24.24.18c.32.21,2.46,1.72,2.64,1.73h0c.3,0,.85-.47,1.14-.67l3.62-2.48a5.33,5.33,0,0,0,1.22-1.41,5.69,5.69,0,0,0,.84-2.66V3.48c0-.19-.15-.28-.28-.34l-.44-.22L8.12.61C6.57-.16,7-.16,5.87.39l-.42.2C3.78,1.41,1.91,2.29.29,3.11c-.13.08-.29.16-.29.37Zm.84.61c0-.18.14-.25.26-.32,1.42-.72,3.06-1.49,4.51-2.21L6,1.39C7,.91,6.6.9,8,1.58l4.13,2c.12.07.24.12.38.19s.25.14.25.3V9.43A5,5,0,0,1,12,11.76,4.91,4.91,0,0,1,10.9,13L7.73,15.17c-.25.17-.74.57-1,.58h0c-.15,0-2-1.33-2.3-1.52-.09-.05-.13-.09-.22-.15L2.65,13A5.16,5.16,0,0,1,.84,9.52Z"/><path class="cls-1" d="M2.13,8.36a4.64,4.64,0,0,0,2.22,4,4,4,0,0,0,.35.2,4.66,4.66,0,0,0,4.46-.18,5.07,5.07,0,0,0,.95-.75l.26-.3A4.66,4.66,0,0,0,11,6.55a5.55,5.55,0,0,0-.4-.72A4.85,4.85,0,0,0,9,4.33a6.85,6.85,0,0,0-1-.4,4.82,4.82,0,0,0-2.5,0,4.67,4.67,0,0,0-3,2.6,4.53,4.53,0,0,0-.4,1.83Zm.79,0a3.79,3.79,0,0,1,.33-1.52A3.89,3.89,0,0,1,5.73,4.69a4,4,0,0,1,2.07,0A4.38,4.38,0,0,1,8.63,5,3.92,3.92,0,0,1,10,6.27a5.6,5.6,0,0,1,.33.59,3.88,3.88,0,0,1-.55,4l-.21.25a5.05,5.05,0,0,1-.8.63,3.87,3.87,0,0,1-3,.4,4.42,4.42,0,0,1-.67-.25c-.11,0-.19-.11-.3-.17A3.86,3.86,0,0,1,2.92,8.37Z"/><path class="cls-1" d="M5,6.2C5,7,6.44,6.11,6.92,7H5.74C5.34,7,5,7,5,7.41s.59.36.79.36H6.92c-.09.41-.53.5-.92.5s-1-.08-1,.39c0,.22.36.53.52.66s.39.39.61.58S7.15,11,7.38,11a.39.39,0,0,0,.36-.52C7.67,10.3,6.33,9.11,6.27,9A1.57,1.57,0,0,0,7.71,7.77c.24,0,.89.11.89-.36a1,1,0,0,0-.08-.22C8.38,7,8,7,7.71,7a1.49,1.49,0,0,0-.2-.46c.32,0,1.09.16,1.09-.36,0-.15-.17-.36-.3-.36h-3A.37.37,0,0,0,5,6.2Z"/></g></g></svg>