<svg xmlns="http://www.w3.org/2000/svg" viewBox="0 0 15.64 16.8"><defs><style>.cls-1,.cls-3{fill:#1e467a;}.cls-1,.cls-2{fill-rule:evenodd;}.cls-2{fill:#fdfdfd;}</style></defs><g id="Layer_2" data-name="Layer 2"><g id="Layer_1-2" data-name="Layer 1"><path class="cls-1" d="M2.62,4a3.8,3.8,0,0,0,.09,1A6.39,6.39,0,0,0,1.42,6.15c-.14.17-.25.31-.37.48A6,6,0,0,0,.46,7.69a5,5,0,0,0,0,4.09,3.57,3.57,0,0,0,.26.56c.49.84.4.38.14,1.08a2.5,2.5,0,0,0,.67,2.7,2.78,2.78,0,0,0,1.88.68,2.64,2.64,0,0,0,1.75-.68,2,2,0,0,0,.42-.4c.22,0,.48.08.73.11a8.46,8.46,0,0,0,1.24.05c1.08,0,.61-.25,1.16.18a2.71,2.71,0,0,0,2.05.74,2.64,2.64,0,0,0,1.63-.63c.23-.23.14-.07.37-.39a2.48,2.48,0,0,0,.36-2.36,3.45,3.45,0,0,1,.38-.54,3.73,3.73,0,0,0,.34-.61,1.67,1.67,0,0,0,1.84-1.84V9.06a1.66,1.66,0,0,0-1.8-1.84,7.19,7.19,0,0,0-1-1.31c-.1-.09-.13-.16-.21-.24l-.51-.42c.11-1.33.65-2.76-1.06-2.44a2.26,2.26,0,0,1-.44.08,3.63,3.63,0,0,0-.8-1.44.57.57,0,0,0-.1-.13A4.15,4.15,0,0,0,6.91,0,4,4,0,0,0,5,.38L4.35.75A4.05,4.05,0,0,0,3,2.38,3.94,3.94,0,0,0,2.62,4Zm.49.88a3.33,3.33,0,0,1,.34-1.41A3.6,3.6,0,0,1,4.68,2.05l.56-.32A3.72,3.72,0,0,1,7,1.4,3.79,3.79,0,0,1,9.58,2.55a.87.87,0,0,1,.09.11,3.18,3.18,0,0,1,.72,1.25,1.76,1.76,0,0,0,.4-.07c1.55-.28,1.06,1,1,2.12l.45.37c.08.07.11.13.19.21a5.66,5.66,0,0,1,.87,1.14A1.46,1.46,0,0,1,14.9,9.27v1.2a1.48,1.48,0,0,1-1.66,1.6,3.64,3.64,0,0,1-.31.53,2.93,2.93,0,0,0-.34.47,2.11,2.11,0,0,1-.33,2c-.21.28-.13.14-.33.34a2.62,2.62,0,0,1-3.34-.1c-.5-.37-.07-.15-1.06-.15a8.18,8.18,0,0,1-1.11,0c-.23,0-.47-.09-.67-.1a1.84,1.84,0,0,1-.38.35A2.41,2.41,0,0,1,3.79,16a2.58,2.58,0,0,1-1.7-.59,2.12,2.12,0,0,1-.61-2.35c.24-.61.32-.21-.12-.94a2.78,2.78,0,0,1-.24-.49,4.13,4.13,0,0,1,0-3.55,4.6,4.6,0,0,1,.53-.92A4.35,4.35,0,0,1,2,6.75a5.36,5.36,0,0,1,1.18-1A2.91,2.91,0,0,1,3.11,4.88Z"/><path class="cls-2" d="M6.7,7.78A3.83,3.83,0,1,0,2.87,4,3.84,3.84,0,0,0,6.7,7.78Z"/><path class="cls-1" d="M6.7,0a4.09,4.09,0,0,1,3,6.82h-.9a3.46,3.46,0,1,0-4.28,0H3.65A4.09,4.09,0,0,1,6.7,0Z"/><rect class="cls-3" x="3.34" y="6.81" width="6.72" height="0.88" rx="0.44"/><path class="cls-1" d="M5.68,2.2H7.94a3.81,3.81,0,0,1-.22.33H7.11a.86.86,0,0,1,.17.36h.66l-.22.32H7.3a1,1,0,0,1-.16.4,1,1,0,0,1-.37.31,1.4,1.4,0,0,1-.63.16h0s.45.56,1.36,1.62H6.9L5.58,4.16V3.84h0l.27,0q.75,0,.93-.48a.4.4,0,0,0,0-.15H5.46a0,0,0,0,1,0,0l.23-.32H6.75a.64.64,0,0,0-.36-.29,1.11,1.11,0,0,0-.34-.06H5.46Z"/></g></g></svg>