<svg xmlns="http://www.w3.org/2000/svg" xmlns:xlink="http://www.w3.org/1999/xlink" viewBox="0 0 10.25 12"><defs><style>.cls-1,.cls-4,.cls-5{fill:none;}.cls-1{clip-rule:evenodd;}.cls-2{fill:#fdfdfd;}.cls-2,.cls-5{fill-rule:evenodd;}.cls-3{clip-path:url(#clip-path);}.cls-4,.cls-5{stroke:#f37e35;stroke-miterlimit:2.61;stroke-width:0.48px;}.cls-6{clip-path:url(#clip-path-2);}.cls-7{clip-path:url(#clip-path-3);}</style><clipPath id="clip-path"><path class="cls-1" d="M2,3.56a8.54,8.54,0,0,0,.29,3.15,5.1,5.1,0,0,0,.47,1A4.76,4.76,0,0,0,3.91,9a3.44,3.44,0,0,0,1.23.68.68.68,0,0,0,.35-.09A5.61,5.61,0,0,0,6.36,9l.13-.11A5.13,5.13,0,0,0,8,6.75a8.53,8.53,0,0,0,.3-3.19.43.43,0,0,0-.17-.34.93.93,0,0,0-.46-.08A4.63,4.63,0,0,1,6.71,3a3.58,3.58,0,0,1-.78-.27c-.55-.25-.45-.37-.84-.37-.15,0-.4.25-.69.37a9.74,9.74,0,0,1-2.17.48A.4.4,0,0,0,2,3.56Z"/></clipPath><clipPath id="clip-path-2"><path class="cls-1" d="M0,1.83V4.57A8.25,8.25,0,0,0,.5,7.19,7.8,7.8,0,0,0,1.11,8.5a8.25,8.25,0,0,0,3.37,3.28,1.41,1.41,0,0,0,.58.22h.13A2.52,2.52,0,0,0,6,11.62a8.32,8.32,0,0,0,1.64-1.24c.17-.16.2-.22.32-.34s.19-.48-.17-.48a5.54,5.54,0,0,0-.68.64L7,10.33a7.82,7.82,0,0,1-1.59,1.08c-.34.18-.36.11-.74-.07a3.79,3.79,0,0,1-.34-.2A7,7,0,0,1,2.82,10a7.49,7.49,0,0,1-.75-.84A7.94,7.94,0,0,1,.61,5.74,22.85,22.85,0,0,1,.47,2a.37.37,0,0,1,0-.12A7.75,7.75,0,0,0,5.09.49c.11,0,.39.22.5.29a5.87,5.87,0,0,0,.75.38,7.67,7.67,0,0,0,2.06.56,5.1,5.1,0,0,0,.67.08l.35,0c.12,0,.33-.05.33.07a33,33,0,0,1-.08,3.46,8,8,0,0,1-.53,2C9.08,7.5,9,7.65,9,7.8a2.42,2.42,0,0,0-.21.43A.25.25,0,0,0,9,8.48c.21,0,.27-.22.35-.37a8.57,8.57,0,0,0,.85-2.88c.09-.67.06-2.45.06-3.21,0-.91-.72-.61-1.86-.79A6.94,6.94,0,0,1,5.74.3C5.44.1,5.4,0,5.08,0h0c-.22,0-.4.2-.55.29A6.12,6.12,0,0,1,4,.6a6,6,0,0,1-1.27.46,10.57,10.57,0,0,1-1.46.25C.86,1.35,0,1.21,0,1.83Z"/></clipPath><clipPath id="clip-path-3"><path class="cls-1" d="M8.23,9a.22.22,0,0,0,.08.22c.09.08.39.15.39-.24C8.7,8.76,8.23,8.7,8.23,9Z"/></clipPath></defs><g id="Layer_2" data-name="Layer 2"><g id="Layer_1-2" data-name="Layer 1"><path class="cls-2" d="M2,3.56a8.54,8.54,0,0,0,.29,3.15,5.1,5.1,0,0,0,.47,1A4.76,4.76,0,0,0,3.91,9a3.44,3.44,0,0,0,1.23.68.68.68,0,0,0,.35-.09A5.61,5.61,0,0,0,6.36,9l.13-.11A5.13,5.13,0,0,0,8,6.75a8.53,8.53,0,0,0,.3-3.19.43.43,0,0,0-.17-.34.93.93,0,0,0-.46-.08A4.63,4.63,0,0,1,6.71,3a3.58,3.58,0,0,1-.78-.27c-.55-.25-.45-.37-.84-.37-.15,0-.4.25-.69.37a9.74,9.74,0,0,1-2.17.48A.4.4,0,0,0,2,3.56Z"/><g class="cls-3"><rect class="cls-4" x="3.2" y="6.57" width="3.85" height="3.91" rx="1.18"/><rect class="cls-4" x="4.26" y="4.27" width="1.72" height="2.3" rx="0.55"/><path class="cls-5" d="M4.26,5.42a1.57,1.57,0,0,0,.86,0c.41-.14.15-.42.86-.3"/><line class="cls-4" x1="5.12" y1="6.57" x2="5.12" y2="7.55"/><line class="cls-4" x1="5.12" y1="8.09" x2="5.12" y2="8.58"/></g><path class="cls-2" d="M0,1.83V4.57A8.25,8.25,0,0,0,.5,7.19,7.8,7.8,0,0,0,1.11,8.5a8.25,8.25,0,0,0,3.37,3.28,1.41,1.41,0,0,0,.58.22h.13A2.52,2.52,0,0,0,6,11.62a8.32,8.32,0,0,0,1.64-1.24c.17-.16.2-.22.32-.34s.19-.48-.17-.48a5.54,5.54,0,0,0-.68.64L7,10.33a7.82,7.82,0,0,1-1.59,1.08c-.34.18-.36.11-.74-.07a3.79,3.79,0,0,1-.34-.2A7,7,0,0,1,2.82,10a7.49,7.49,0,0,1-.75-.84A7.94,7.94,0,0,1,.61,5.74,22.85,22.85,0,0,1,.47,2a.37.37,0,0,1,0-.12A7.75,7.75,0,0,0,5.09.49c.11,0,.39.22.5.29a5.87,5.87,0,0,0,.75.38,7.67,7.67,0,0,0,2.06.56,5.1,5.1,0,0,0,.67.08l.35,0c.12,0,.33-.05.33.07a33,33,0,0,1-.08,3.46,8,8,0,0,1-.53,2C9.08,7.5,9,7.65,9,7.8a2.42,2.42,0,0,0-.21.43A.25.25,0,0,0,9,8.48c.21,0,.27-.22.35-.37a8.57,8.57,0,0,0,.85-2.88c.09-.67.06-2.45.06-3.21,0-.91-.72-.61-1.86-.79A6.94,6.94,0,0,1,5.74.3C5.44.1,5.4,0,5.08,0h0c-.22,0-.4.2-.55.29A6.12,6.12,0,0,1,4,.6a6,6,0,0,1-1.27.46,10.57,10.57,0,0,1-1.46.25C.86,1.35,0,1.21,0,1.83Z"/><g class="cls-6"><rect class="cls-4" x="3.2" y="6.57" width="3.85" height="3.91" rx="1.18"/><rect class="cls-4" x="4.26" y="4.27" width="1.72" height="2.3" rx="0.55"/><path class="cls-5" d="M4.26,5.42a1.57,1.57,0,0,0,.86,0c.41-.14.15-.42.86-.3"/><line class="cls-4" x1="5.12" y1="6.57" x2="5.12" y2="7.55"/><line class="cls-4" x1="5.12" y1="8.09" x2="5.12" y2="8.58"/></g><path class="cls-2" d="M8.23,9a.22.22,0,0,0,.08.22c.09.08.39.15.39-.24C8.7,8.76,8.23,8.7,8.23,9Z"/><g class="cls-7"><rect class="cls-4" x="3.2" y="6.57" width="3.85" height="3.91" rx="1.18"/><rect class="cls-4" x="4.26" y="4.27" width="1.72" height="2.3" rx="0.55"/><path class="cls-5" d="M4.26,5.42a1.57,1.57,0,0,0,.86,0c.41-.14.15-.42.86-.3"/><line class="cls-4" x1="5.12" y1="6.57" x2="5.12" y2="7.55"/><line class="cls-4" x1="5.12" y1="8.09" x2="5.12" y2="8.58"/></g></g></g></svg>