<svg xmlns="http://www.w3.org/2000/svg" viewBox="0 0 11.11 12"><defs><style>.cls-1{fill:#fdfdfd;}.cls-1,.cls-2{fill-rule:evenodd;}.cls-2{fill:none;stroke:#fdfdfd;stroke-miterlimit:2.61;stroke-width:0.22px;}</style></defs><g id="Layer_2" data-name="Layer 2"><g id="Layer_1-2" data-name="Layer 1"><path class="cls-1" d="M6,2.07c.25-.6.22-1.47-.62-1.31a.11.11,0,0,0,0,.08V.92c.18.49.3.23.36.64-.37.3-.27.23-.78.09C4.44.1,7-.43,6.47,2.34c-3-.18-4.79,1.1-5.35,4.15-.55.26-.86.25-1,.8A1.74,1.74,0,0,0,.35,8.8c.42.51.67.39,1.18.72s.61.86.87,1.16a4.52,4.52,0,0,0,5.78.52c1.41-1,.47-1.27,2-1.94a1.48,1.48,0,0,0,.37-2.53c-.73-.52-.36-.27-.64-1.25a4.36,4.36,0,0,0-3-3A2.54,2.54,0,0,0,6.79.6,1.46,1.46,0,0,0,5.17.07C4,.43,4,2.63,6,2.07ZM1.48,6.93c.57-1.55,0-1.81,1.37-3.09.78-.74,2.42-1.42,3.19-1-.64.69-.81,0-1,.7.71.35,1.4-.41,1.73-.66A4,4,0,0,1,9.67,7c.82.1,1.35.48.84,1.42S9.5,8.67,9,9.47a3.73,3.73,0,0,1-3,2.16A4.08,4.08,0,0,1,2,9.22C1.62,8.91,0,9,.58,7.1Z"/><path class="cls-1" d="M3.61,8.57A.43.43,0,0,0,4,8.1a.43.43,0,0,0-.36-.47.43.43,0,0,0-.36.47A.43.43,0,0,0,3.61,8.57Z"/><path class="cls-1" d="M7.5,8.57a.43.43,0,0,0,.37-.47.43.43,0,0,0-.37-.47.43.43,0,0,0-.36.47A.43.43,0,0,0,7.5,8.57Z"/><path class="cls-2" d="M4.3,10.1A2.09,2.09,0,0,0,6.89,10"/></g></g></svg>