<svg xmlns="http://www.w3.org/2000/svg" viewBox="0 0 12 12"><defs><style>.cls-1{fill:#fdfdfd;fill-rule:evenodd;}</style></defs><g id="Layer_2" data-name="Layer 2"><g id="Layer_1-2" data-name="Layer 1"><path class="cls-1" d="M12,1.76a1.62,1.62,0,0,0-.16-.83,1.31,1.31,0,0,0-.33-.44,1.45,1.45,0,0,0-.44-.33A1.72,1.72,0,0,0,10.44,0h-.22a1.66,1.66,0,1,0,1.44,2.67A1.69,1.69,0,0,0,12,1.76Zm-1.72.33V1.71A.47.47,0,0,1,10,1.56a.41.41,0,0,1-.08-.24A.37.37,0,0,1,10,1.07.34.34,0,0,1,10.28,1V.87h.13V1a.37.37,0,0,1,.22.09.36.36,0,0,1,.11.22l-.23,0a.21.21,0,0,0-.1-.15V1.5a.6.6,0,0,1,.29.15.36.36,0,0,1,.08.24.36.36,0,0,1-.1.27.5.5,0,0,1-.27.14v.17h-.13V2.3A.39.39,0,0,1,10,2.19a.49.49,0,0,1-.13-.27l.24,0a.17.17,0,0,0,0,.12.23.23,0,0,0,.09.08Zm0-.94v.31a.22.22,0,0,1-.09-.07.11.11,0,0,1,0-.08.17.17,0,0,1,0-.1.15.15,0,0,1,.09-.06Zm.13,1V1.75a.23.23,0,0,1,.11.07.13.13,0,0,1,0,.1.25.25,0,0,1,0,.12A.24.24,0,0,1,10.41,2.1Z"/><path class="cls-1" d="M2.11,4.34a1.81,1.81,0,0,0,.16.42l.16.42,1,2.4c0,.06,0,.08.08.08H5.18V6.26c0-.09-.07-.08-.16-.07H3.38A11.89,11.89,0,0,1,2.7,4.41a.7.7,0,0,1,.19-.47A.68.68,0,0,1,4,4.15L4.27,5h.39l-.11-.26a5.1,5.1,0,0,0-.4-.77L3.64,3.3c-.11-.11-.12-.07-.12-.28a1.18,1.18,0,0,1-.7,0c-.11,0-.14-.07-.15.08,0,.33,0,.23-.13.46S2.11,4.32,2.11,4.34Z"/><path class="cls-1" d="M11.16,6.21c-.27,0-.4,0-.4-.07v-2h-.42V6.21h-.4V4.76H9.52V6.21h-.4V5.37c-.29,0-.45,0-.45.07v.77c-.48,0-.4.09-.4-.42H7.85v.42H7.43c0,.28,0,.42.07.42H12V6.21h-.4V3.73h-.44Z"/><path class="cls-1" d="M.82,10.8a.29.29,0,0,0,.2.28l.18,0A21.82,21.82,0,0,0,7,12H9.33c.23,0,.26-.33.05-.41s-1.78,0-2.07,0l-1.12-.07A25.9,25.9,0,0,1,3.07,11c-.33-.07-.65-.16-1-.24a6.15,6.15,0,0,0-1-.25A.26.26,0,0,0,.82,10.8Z"/><path class="cls-1" d="M.52,2.88,1.37,5l.29.69,1,2.44a2.79,2.79,0,0,1,.14.37H5.18V8.06h-2L2.9,7.39C2.48,6.42,1.92,5,1.53,4l-.27-.66c-.05-.12-.09-.23-.14-.34A3.65,3.65,0,0,1,1,2.67,1,1,0,0,1,.52,2.88Z"/><path class="cls-1" d="M2.27,1.41V1.9a.84.84,0,0,0,1.67,0V1.43A.83.83,0,0,0,2.52.86.77.77,0,0,0,2.27,1.41Z"/><path class="cls-1" d="M6.4,7.66c.64,0,.5-.06.73.31l1.38,2.24c0,.06.06.15.14.15h1.1c.18,0,.35-.24,0-.31l-.65-.13c-.14,0,0,.05-.2-.2L7.35,7.37C7.08,7,7.1,7,6.4,7Z"/><path class="cls-1" d="M5.58,6.26V11c0,.1.09.07.18.08l.24,0V6.19C5.72,6.19,5.58,6.15,5.58,6.26Z"/><path class="cls-1" d="M3.09,4.41a2.74,2.74,0,0,0,.28.73l.15.35c.06.15.1.32.18.32H6.52c.19,0-.1-.31-.25-.38a1.81,1.81,0,0,0-.72-.06H4c0-.22-.15-.47-.22-.69s-.07-.25-.12-.36A.28.28,0,0,0,3.09,4.41Z"/><path class="cls-1" d="M2.23,10.43l.61.15.44-1.25a1.94,1.94,0,0,0,.14-.45c-.59,0-.58-.05-.65.15l-.24.6A6.7,6.7,0,0,0,2.23,10.43Z"/><path class="cls-1" d="M0,2v.11a.42.42,0,0,0,.73.22A.42.42,0,1,0,0,2Z"/><path class="cls-1" d="M6.4,8.48H7a1.39,1.39,0,0,0-.11-.21.63.63,0,0,1-.12-.21H6.4Z"/></g></g></svg>