<svg xmlns="http://www.w3.org/2000/svg" viewBox="0 0 11.17 12"><defs><style>.cls-1,.cls-3{fill:#fdfdfd;}.cls-1,.cls-2{fill-rule:evenodd;}.cls-2{fill:#1e467a;}</style></defs><g id="Layer_2" data-name="Layer 2"><g id="Layer_1-2" data-name="Layer 1"><path class="cls-1" d="M1.87,2.86a2.56,2.56,0,0,0,.07.7A4.54,4.54,0,0,0,1,4.39c-.09.12-.18.22-.26.35a4.16,4.16,0,0,0-.42.75,3.54,3.54,0,0,0,0,2.92,2.46,2.46,0,0,0,.19.4c.35.61.28.28.09.78a1.78,1.78,0,0,0,.49,1.92A2,2,0,0,0,2.41,12a1.89,1.89,0,0,0,1.25-.49A1.29,1.29,0,0,0,4,11.23c.16,0,.35.06.53.08a6.42,6.42,0,0,0,.88,0c.78,0,.44-.18.83.13A2,2,0,0,0,7.66,12a1.91,1.91,0,0,0,1.16-.45c.16-.16.1-.05.27-.28a1.79,1.79,0,0,0,.26-1.68,2.37,2.37,0,0,1,.26-.39,2.39,2.39,0,0,0,.25-.43,1.19,1.19,0,0,0,1.31-1.32v-1A1.18,1.18,0,0,0,9.88,5.16a4.46,4.46,0,0,0-.68-.94c-.07-.06-.09-.12-.15-.17l-.36-.3c.08-1,.46-2-.76-1.74a1.64,1.64,0,0,1-.32.05,2.71,2.71,0,0,0-.56-1L7,.94A3,3,0,0,0,3.55.27L3.11.54a2.82,2.82,0,0,0-1,1.16,2.91,2.91,0,0,0-.27,1.16Zm.35.63a2.5,2.5,0,0,1,.24-1,2.61,2.61,0,0,1,.88-1l.4-.23A2.68,2.68,0,0,1,5,1a2.71,2.71,0,0,1,1.84.82l.07.08a2.38,2.38,0,0,1,.51.89,1.47,1.47,0,0,0,.29,0c1.11-.19.76.7.69,1.52l.32.26c.06.05.08.1.14.15a4.16,4.16,0,0,1,.62.81,1.06,1.06,0,0,1,1.17,1.14v.86A1.06,1.06,0,0,1,9.46,8.62,1.93,1.93,0,0,1,9.23,9,2.2,2.2,0,0,0,9,9.34a1.5,1.5,0,0,1-.23,1.46c-.15.2-.1.1-.24.24a1.78,1.78,0,0,1-1.06.39A1.76,1.76,0,0,1,6.14,11c-.36-.26-.06-.11-.76-.11a5.35,5.35,0,0,1-.8,0c-.16,0-.33-.06-.47-.07a1.29,1.29,0,0,1-.27.25,1.74,1.74,0,0,1-1.13.42A1.87,1.87,0,0,1,1.49,11a1.53,1.53,0,0,1-.44-1.67c.18-.44.24-.15-.08-.68A2.16,2.16,0,0,1,.8,8.32a2.94,2.94,0,0,1,0-2.54,3.23,3.23,0,0,1,.37-.66c.08-.11.16-.2.24-.3a4.34,4.34,0,0,1,.84-.72A2.34,2.34,0,0,1,2.22,3.49Z"/><path class="cls-2" d="M4.78,5.56A2.74,2.74,0,1,0,2.05,2.82,2.74,2.74,0,0,0,4.78,5.56Z"/><path class="cls-1" d="M4.78,0A2.92,2.92,0,0,1,7,4.87H6.31a2.47,2.47,0,1,0-4-1.94,2.44,2.44,0,0,0,.94,1.94H2.61a2.87,2.87,0,0,1-.75-1.95A2.92,2.92,0,0,1,4.78,0Z"/><rect class="cls-3" x="2.38" y="4.86" width="4.8" height="0.63" rx="0.32"/><path class="cls-1" d="M4.06,1.57H5.67a2.07,2.07,0,0,1-.16.24H5.08a.53.53,0,0,1,.12.25h.47l-.16.23h-.3a.59.59,0,0,1-.11.29.75.75,0,0,1-.27.22,1.06,1.06,0,0,1-.44.11h0s.32.4,1,1.16H4.93L4,3V2.75h.2c.36,0,.58-.12.66-.34a.43.43,0,0,0,0-.11h-1l.17-.23h.76a.45.45,0,0,0-.25-.21.77.77,0,0,0-.25,0H3.9A1.74,1.74,0,0,1,4.06,1.57Z"/></g></g></svg>